<svg width="20" height="16" viewBox="0 0 20 16" fill="none" xmlns="http://www.w3.org/2000/svg">
<path d="M1.66669 3.83331L5.99489 6.71878C6.24459 6.88525 6.36944 6.96848 6.50452 7.02745C6.62441 7.07979 6.75005 7.11783 6.87883 7.14078C7.02393 7.16665 7.17398 7.16665 7.47409 7.16665H12.526C12.8261 7.16665 12.9761 7.16665 13.1212 7.14078C13.25 7.11783 13.3756 7.07979 13.4955 7.02745C13.6306 6.96848 13.7555 6.88524 14.0052 6.71878L18.3334 3.83331M5.66669 14.6666H14.3334C15.7335 14.6666 16.4336 14.6666 16.9683 14.3942C17.4387 14.1545 17.8212 13.772 18.0609 13.3016C18.3334 12.7668 18.3334 12.0668 18.3334 10.6666V5.33331C18.3334 3.93318 18.3334 3.23312 18.0609 2.69834C17.8212 2.22793 17.4387 1.84548 16.9683 1.6058C16.4336 1.33331 15.7335 1.33331 14.3334 1.33331H5.66669C4.26656 1.33331 3.56649 1.33331 3.03171 1.6058C2.56131 1.84548 2.17885 2.22793 1.93917 2.69834C1.66669 3.23312 1.66669 3.93318 1.66669 5.33331V10.6666C1.66669 12.0668 1.66669 12.7668 1.93917 13.3016C2.17885 13.772 2.56131 14.1545 3.03171 14.3942C3.56649 14.6666 4.26656 14.6666 5.66669 14.6666Z" stroke="#344054" stroke-width="1.66667" stroke-linecap="round" stroke-linejoin="round"/>
</svg>
